<?xml version="1.0" encoding="UTF-8" standalone="no"?>
<!DOCTYPE svg PUBLIC "-//W3C//DTD SVG 1.1//EN" "http://www.w3.org/Graphics/SVG/1.1/DTD/svg11.dtd">
<svg width="100%" height="100%" viewBox="0 0 213 32" version="1.1" xmlns="http://www.w3.org/2000/svg" xmlns:xlink="http://www.w3.org/1999/xlink" xml:space="preserve" xmlns:serif="http://www.serif.com/" style="fill-rule:evenodd;clip-rule:evenodd;stroke-linejoin:round;stroke-miterlimit:2;">
    <g transform="matrix(1,0,0,1,-94.2928,-34.0039)">
        <g transform="matrix(1,0,0,1,31.9647,-15.1211)">
            <g transform="matrix(40,0,0,40,61,76)">
                <path d="M0.144,-0.309L0.502,-0.144C0.516,-0.137 0.527,-0.13 0.533,-0.124C0.539,-0.117 0.542,-0.11 0.542,-0.101C0.542,-0.091 0.539,-0.083 0.533,-0.078C0.528,-0.072 0.52,-0.069 0.51,-0.069C0.505,-0.069 0.5,-0.07 0.495,-0.071C0.489,-0.073 0.481,-0.076 0.471,-0.081L0.083,-0.262C0.082,-0.263 0.08,-0.263 0.078,-0.264C0.048,-0.278 0.033,-0.293 0.033,-0.309C0.033,-0.325 0.048,-0.34 0.077,-0.353C0.08,-0.354 0.082,-0.355 0.083,-0.356L0.471,-0.534C0.48,-0.538 0.487,-0.541 0.494,-0.543C0.5,-0.545 0.505,-0.546 0.51,-0.546C0.52,-0.546 0.528,-0.543 0.533,-0.538C0.539,-0.532 0.542,-0.525 0.542,-0.515C0.542,-0.506 0.539,-0.499 0.533,-0.492C0.527,-0.485 0.516,-0.479 0.502,-0.472L0.144,-0.309Z" style="fill:rgb(233,233,226);fill-rule:nonzero;"/>
            </g>
            <g transform="matrix(40,0,0,40,85.0039,76)">
                <path d="M0.223,-0.001C0.167,-0.017 0.121,-0.052 0.087,-0.105C0.053,-0.158 0.036,-0.22 0.036,-0.291C0.036,-0.377 0.062,-0.449 0.112,-0.508C0.163,-0.566 0.226,-0.595 0.3,-0.595C0.375,-0.595 0.437,-0.566 0.488,-0.507C0.539,-0.449 0.564,-0.376 0.564,-0.29C0.564,-0.2 0.539,-0.128 0.49,-0.073C0.441,-0.018 0.377,0.01 0.297,0.01L0.278,0.01C0.274,0.01 0.269,0.009 0.265,0.009L0.213,0.06C0.232,0.052 0.252,0.046 0.272,0.043C0.292,0.039 0.313,0.037 0.334,0.037C0.348,0.037 0.368,0.041 0.393,0.049C0.419,0.056 0.437,0.06 0.449,0.06C0.459,0.06 0.471,0.057 0.486,0.051C0.5,0.045 0.509,0.042 0.514,0.042C0.522,0.042 0.529,0.045 0.535,0.052C0.541,0.059 0.544,0.068 0.544,0.077C0.544,0.087 0.534,0.098 0.514,0.109C0.494,0.12 0.474,0.125 0.452,0.125C0.434,0.125 0.408,0.12 0.374,0.109C0.34,0.098 0.314,0.093 0.297,0.093C0.272,0.093 0.247,0.099 0.219,0.11C0.191,0.122 0.176,0.128 0.173,0.128C0.166,0.128 0.158,0.124 0.151,0.116C0.144,0.108 0.14,0.1 0.14,0.092C0.14,0.083 0.156,0.064 0.187,0.034C0.202,0.02 0.214,0.008 0.223,-0.001ZM0.3,-0.055C0.353,-0.055 0.396,-0.076 0.428,-0.118C0.46,-0.161 0.476,-0.218 0.476,-0.29C0.476,-0.363 0.46,-0.42 0.428,-0.462C0.396,-0.505 0.354,-0.526 0.3,-0.526C0.246,-0.526 0.204,-0.505 0.172,-0.462C0.14,-0.42 0.124,-0.363 0.124,-0.29C0.124,-0.217 0.14,-0.16 0.172,-0.118C0.204,-0.076 0.246,-0.055 0.3,-0.055Z" style="fill:rgb(233,233,226);fill-rule:nonzero;"/>
            </g>
            <g transform="matrix(40,0,0,40,109.008,76)">
                <path d="M0.297,-0.248L0.234,-0.016C0.231,-0.004 0.226,0.005 0.219,0.01C0.213,0.015 0.203,0.017 0.19,0.017C0.178,0.017 0.169,0.014 0.163,0.008C0.156,0.002 0.15,-0.01 0.145,-0.026L0.033,-0.382L0.029,-0.382C0.015,-0.382 0.005,-0.385 -0.001,-0.39C-0.007,-0.395 -0.01,-0.404 -0.01,-0.417C-0.01,-0.428 -0.007,-0.437 0,-0.442C0.006,-0.448 0.015,-0.451 0.028,-0.451L0.158,-0.451C0.176,-0.451 0.188,-0.449 0.194,-0.444C0.2,-0.439 0.203,-0.43 0.203,-0.417C0.203,-0.409 0.201,-0.402 0.198,-0.397C0.194,-0.391 0.19,-0.388 0.184,-0.386C0.179,-0.385 0.172,-0.383 0.165,-0.383C0.157,-0.382 0.149,-0.382 0.138,-0.382L0.11,-0.382L0.194,-0.089L0.257,-0.302C0.26,-0.314 0.265,-0.323 0.272,-0.328C0.278,-0.333 0.288,-0.335 0.301,-0.335C0.313,-0.335 0.322,-0.332 0.328,-0.325C0.335,-0.319 0.341,-0.308 0.346,-0.292L0.407,-0.089L0.488,-0.382L0.455,-0.382C0.433,-0.382 0.417,-0.384 0.41,-0.389C0.402,-0.394 0.398,-0.404 0.398,-0.417C0.398,-0.43 0.401,-0.439 0.407,-0.444C0.413,-0.449 0.424,-0.451 0.441,-0.451L0.572,-0.451C0.582,-0.451 0.589,-0.448 0.594,-0.442C0.6,-0.437 0.602,-0.428 0.602,-0.417C0.602,-0.405 0.599,-0.396 0.593,-0.391C0.587,-0.385 0.576,-0.382 0.56,-0.382L0.45,-0.016C0.446,-0.004 0.441,0.005 0.434,0.01C0.428,0.015 0.418,0.017 0.406,0.017C0.394,0.017 0.385,0.014 0.378,0.008C0.371,0.001 0.365,-0.01 0.361,-0.026L0.297,-0.248Z" style="fill:rgb(233,233,226);fill-rule:nonzero;"/>
            </g>
            <g transform="matrix(40,0,0,40,133.012,76)">
                <path d="M0.255,-0.592C0.255,-0.627 0.258,-0.649 0.264,-0.658C0.271,-0.667 0.284,-0.672 0.305,-0.672C0.325,-0.672 0.339,-0.668 0.345,-0.66C0.352,-0.653 0.355,-0.635 0.355,-0.606C0.355,-0.578 0.352,-0.561 0.346,-0.554C0.34,-0.547 0.326,-0.544 0.305,-0.544C0.284,-0.544 0.271,-0.547 0.264,-0.553C0.258,-0.559 0.255,-0.572 0.255,-0.592ZM0.345,-0.069L0.502,-0.069C0.515,-0.069 0.524,-0.066 0.53,-0.061C0.536,-0.055 0.539,-0.047 0.539,-0.035C0.539,-0.022 0.536,-0.013 0.531,-0.008C0.525,-0.003 0.514,0 0.499,0L0.12,0C0.107,0 0.097,-0.003 0.091,-0.009C0.084,-0.015 0.081,-0.023 0.081,-0.035C0.081,-0.047 0.084,-0.055 0.091,-0.061C0.098,-0.066 0.108,-0.069 0.122,-0.069L0.271,-0.069L0.271,-0.382L0.176,-0.382C0.162,-0.382 0.152,-0.385 0.145,-0.391C0.138,-0.397 0.135,-0.406 0.135,-0.417C0.135,-0.428 0.138,-0.437 0.145,-0.443C0.151,-0.448 0.161,-0.451 0.174,-0.451L0.317,-0.451C0.326,-0.451 0.333,-0.449 0.338,-0.446C0.343,-0.442 0.345,-0.437 0.345,-0.431L0.345,-0.069Z" style="fill:rgb(233,233,226);fill-rule:nonzero;"/>
            </g>
            <g transform="matrix(40,0,0,40,157.016,76)">
                <path d="M0.194,-0.069L0.437,-0.069L0.437,-0.094C0.437,-0.122 0.44,-0.14 0.445,-0.149C0.45,-0.157 0.459,-0.161 0.472,-0.161C0.484,-0.161 0.492,-0.158 0.498,-0.151C0.503,-0.145 0.506,-0.135 0.506,-0.122L0.506,-0.041C0.506,-0.026 0.502,-0.016 0.493,-0.01C0.485,-0.003 0.47,0 0.448,0L0.153,0C0.135,0 0.121,-0.004 0.111,-0.011C0.102,-0.019 0.097,-0.03 0.097,-0.044C0.097,-0.053 0.099,-0.061 0.103,-0.069C0.107,-0.077 0.117,-0.088 0.132,-0.103L0.411,-0.382L0.178,-0.382L0.178,-0.357C0.178,-0.329 0.176,-0.31 0.171,-0.302C0.166,-0.294 0.156,-0.29 0.143,-0.29C0.131,-0.29 0.123,-0.293 0.117,-0.3C0.111,-0.306 0.108,-0.316 0.108,-0.329L0.108,-0.412C0.108,-0.425 0.113,-0.435 0.124,-0.442C0.135,-0.448 0.152,-0.451 0.176,-0.451L0.437,-0.451C0.46,-0.451 0.477,-0.447 0.489,-0.439C0.5,-0.43 0.506,-0.418 0.506,-0.402C0.506,-0.392 0.502,-0.382 0.495,-0.37C0.488,-0.358 0.477,-0.345 0.462,-0.331L0.194,-0.069Z" style="fill:rgb(233,233,226);fill-rule:nonzero;"/>
            </g>
            <g transform="matrix(40,0,0,40,181.02,76)">
                <path d="M0.383,-0.046C0.361,-0.027 0.338,-0.012 0.314,-0.003C0.291,0.007 0.266,0.011 0.24,0.011C0.196,0.011 0.16,-0.004 0.131,-0.033C0.102,-0.063 0.088,-0.101 0.088,-0.146C0.088,-0.177 0.096,-0.206 0.111,-0.231C0.127,-0.257 0.153,-0.283 0.188,-0.31C0.172,-0.333 0.16,-0.354 0.153,-0.372C0.146,-0.39 0.142,-0.407 0.142,-0.424C0.142,-0.458 0.155,-0.487 0.18,-0.511C0.205,-0.535 0.236,-0.547 0.273,-0.547C0.285,-0.547 0.298,-0.545 0.312,-0.541C0.325,-0.536 0.342,-0.529 0.361,-0.519C0.362,-0.519 0.364,-0.52 0.366,-0.52C0.367,-0.52 0.37,-0.52 0.373,-0.52C0.383,-0.52 0.392,-0.517 0.397,-0.512C0.403,-0.507 0.406,-0.5 0.406,-0.491C0.406,-0.48 0.402,-0.469 0.394,-0.46C0.385,-0.451 0.377,-0.446 0.368,-0.446C0.362,-0.446 0.349,-0.452 0.329,-0.464C0.309,-0.476 0.292,-0.482 0.277,-0.482C0.261,-0.482 0.247,-0.477 0.236,-0.467C0.226,-0.457 0.22,-0.444 0.22,-0.429C0.22,-0.419 0.223,-0.408 0.229,-0.396C0.234,-0.383 0.246,-0.365 0.264,-0.341L0.385,-0.175C0.391,-0.19 0.397,-0.21 0.404,-0.235C0.413,-0.272 0.426,-0.29 0.443,-0.29L0.473,-0.29C0.48,-0.29 0.487,-0.286 0.492,-0.279C0.497,-0.272 0.5,-0.263 0.5,-0.253C0.5,-0.241 0.498,-0.232 0.494,-0.227C0.489,-0.222 0.481,-0.218 0.469,-0.216C0.465,-0.2 0.46,-0.183 0.454,-0.166C0.448,-0.149 0.441,-0.132 0.432,-0.114L0.462,-0.072L0.474,-0.072C0.48,-0.072 0.485,-0.069 0.489,-0.063C0.493,-0.057 0.495,-0.049 0.495,-0.039C0.495,-0.027 0.493,-0.017 0.488,-0.01C0.484,-0.003 0.478,0 0.47,0L0.429,0C0.421,0 0.412,-0.007 0.402,-0.022C0.4,-0.024 0.399,-0.026 0.398,-0.027L0.383,-0.046ZM0.341,-0.103L0.231,-0.251C0.212,-0.238 0.197,-0.223 0.188,-0.208C0.179,-0.192 0.174,-0.175 0.174,-0.156C0.174,-0.13 0.182,-0.109 0.199,-0.091C0.216,-0.074 0.236,-0.065 0.26,-0.065C0.274,-0.065 0.288,-0.068 0.301,-0.074C0.314,-0.08 0.327,-0.09 0.341,-0.103Z" style="fill:rgb(233,233,226);fill-rule:nonzero;"/>
            </g>
            <g transform="matrix(40,0,0,40,205.023,76)">
                <path d="M0.455,-0.084L0.455,-0.2L0.334,-0.2C0.324,-0.2 0.317,-0.203 0.312,-0.208C0.308,-0.213 0.305,-0.221 0.305,-0.232C0.305,-0.244 0.307,-0.253 0.312,-0.257C0.316,-0.262 0.324,-0.264 0.336,-0.264L0.547,-0.264C0.555,-0.264 0.562,-0.261 0.566,-0.256C0.57,-0.251 0.572,-0.243 0.572,-0.232C0.572,-0.22 0.569,-0.212 0.564,-0.207C0.558,-0.202 0.549,-0.2 0.535,-0.2L0.529,-0.2L0.529,-0.053C0.529,-0.044 0.528,-0.038 0.526,-0.035C0.524,-0.031 0.52,-0.028 0.514,-0.025C0.496,-0.014 0.469,-0.004 0.433,0.003C0.398,0.011 0.362,0.015 0.325,0.015C0.238,0.015 0.167,-0.013 0.114,-0.068C0.06,-0.124 0.033,-0.197 0.033,-0.286C0.033,-0.376 0.059,-0.45 0.112,-0.508C0.165,-0.566 0.232,-0.595 0.313,-0.595C0.335,-0.595 0.357,-0.593 0.38,-0.588C0.402,-0.583 0.425,-0.575 0.449,-0.565C0.452,-0.573 0.457,-0.58 0.463,-0.583C0.468,-0.587 0.476,-0.589 0.485,-0.589C0.5,-0.589 0.51,-0.584 0.515,-0.575C0.52,-0.566 0.523,-0.545 0.523,-0.512L0.523,-0.446C0.523,-0.43 0.52,-0.419 0.515,-0.412C0.509,-0.406 0.5,-0.403 0.486,-0.403C0.469,-0.403 0.457,-0.413 0.449,-0.434C0.447,-0.44 0.444,-0.445 0.443,-0.448C0.431,-0.474 0.414,-0.494 0.391,-0.508C0.369,-0.522 0.343,-0.529 0.314,-0.529C0.256,-0.529 0.209,-0.508 0.174,-0.466C0.139,-0.423 0.122,-0.367 0.122,-0.295C0.122,-0.221 0.141,-0.162 0.18,-0.119C0.218,-0.075 0.269,-0.053 0.333,-0.053C0.352,-0.053 0.371,-0.056 0.39,-0.061C0.41,-0.065 0.432,-0.073 0.455,-0.084Z" style="fill:rgb(233,233,226);fill-rule:nonzero;"/>
            </g>
            <g transform="matrix(40,0,0,40,229.027,76)">
                <path d="M0.3,-0.056C0.35,-0.056 0.391,-0.072 0.423,-0.104C0.455,-0.135 0.471,-0.176 0.471,-0.225C0.471,-0.274 0.455,-0.315 0.423,-0.347C0.391,-0.379 0.35,-0.395 0.3,-0.395C0.25,-0.395 0.209,-0.379 0.177,-0.347C0.145,-0.315 0.129,-0.274 0.129,-0.225C0.129,-0.176 0.145,-0.135 0.177,-0.104C0.209,-0.072 0.25,-0.056 0.3,-0.056ZM0.556,-0.225C0.556,-0.155 0.532,-0.098 0.485,-0.054C0.437,-0.01 0.376,0.012 0.3,0.012C0.224,0.012 0.163,-0.01 0.115,-0.054C0.068,-0.098 0.044,-0.155 0.044,-0.225C0.044,-0.295 0.068,-0.352 0.115,-0.396C0.163,-0.44 0.224,-0.462 0.3,-0.462C0.375,-0.462 0.437,-0.44 0.485,-0.396C0.532,-0.351 0.556,-0.294 0.556,-0.225Z" style="fill:rgb(233,233,226);fill-rule:nonzero;"/>
            </g>
            <g transform="matrix(40,0,0,40,253.031,76)">
                <path d="M0.43,-0.309L0.073,-0.472C0.058,-0.479 0.048,-0.486 0.042,-0.492C0.035,-0.499 0.032,-0.507 0.032,-0.515C0.032,-0.525 0.035,-0.532 0.041,-0.538C0.046,-0.543 0.054,-0.546 0.064,-0.546C0.069,-0.546 0.074,-0.545 0.08,-0.543C0.086,-0.541 0.094,-0.538 0.103,-0.534L0.491,-0.356C0.493,-0.355 0.494,-0.354 0.497,-0.353C0.526,-0.34 0.541,-0.325 0.541,-0.309C0.541,-0.293 0.527,-0.278 0.498,-0.265C0.495,-0.264 0.493,-0.263 0.491,-0.262L0.103,-0.081L0.101,-0.08C0.084,-0.073 0.072,-0.069 0.064,-0.069C0.054,-0.069 0.046,-0.072 0.041,-0.078C0.035,-0.083 0.032,-0.091 0.032,-0.101C0.032,-0.11 0.035,-0.117 0.042,-0.124C0.048,-0.13 0.058,-0.137 0.073,-0.144L0.43,-0.309Z" style="fill:rgb(233,233,226);fill-rule:nonzero;"/>
            </g>
        </g>
    </g>
</svg>
